<svg width="133" height="34" fill="none" xmlns="http://www.w3.org/2000/svg"><path d="m128.438 12.134-4.538 4.948v-4.948h-3.284v12.492h3.284v-5.258l4.858 5.258H133l-5.975-6.544 5.542-5.948h-4.129Zm-13.612 4.66h-4.54v-4.66h-3.284v12.492h3.284v-4.924h4.54v4.924h3.284V12.134h-3.284v4.66ZM19.499 18.9c-.078 2.33-.387 2.795-1.734 2.795v2.932h.502c3.357 0 4.164-1.685 4.288-5.436l.137-4.149h3.147v9.59h3.286V12.137h-9.398L19.5 18.9Zm17.787-2.97h-2.373v-3.795h-3.286v12.492h5.703c3.58 0 4.857-2.262 4.857-4.392 0-2.752-1.78-4.305-4.903-4.305m-.252 5.946h-2.119v-3.171h2.121c1.141 0 1.825.486 1.825 1.53 0 1.132-.662 1.641-1.825 1.641m15.85-10.028V7.21h-3.286v4.637c-3.76.303-6.292 2.907-6.292 6.52 0 3.611 2.532 6.235 6.294 6.545v4.703h3.286v-4.7c3.762-.289 6.294-2.906 6.294-6.549 0-3.642-2.532-6.235-6.296-6.523m-3.286 10.052c-1.825-.245-2.964-1.575-2.964-3.529 0-1.953 1.14-3.284 2.964-3.527v7.056Zm3.286 0v-7.052c1.826.243 2.974 1.57 2.974 3.523 0 1.954-1.141 3.284-2.966 3.529m18.602-1.107V16.59c0-3.062-2.008-4.992-5.381-4.992-3.49 0-5.337 2.04-5.496 4.17h3.33c.112-.465.614-1.265 2.166-1.265 1.278 0 2.097.578 2.097 2.087h-3.262c-2.92 0-4.65 1.487-4.65 3.971 0 2.6 1.894 4.376 4.629 4.376 2.007 0 3.117-.922 3.603-1.62.433.844 1.39 1.31 2.645 1.31h1.14V21.74c-.593 0-.82-.266-.82-.953m-3.286-.82c0 1.441-1.05 2.262-2.417 2.262-1.187 0-2.121-.421-2.121-1.664 0-1.243 1.026-1.421 1.914-1.421h2.624v.822Zm17.358-6.057h-3.673v-3.527H90.4V7.21H78.451v17.416h7.12c3.944 0 6.206-1.907 6.206-5.413 0-3.307-2.258-5.303-6.207-5.303m-.16 7.566h-3.516v-4.53h3.512c1.825 0 2.851.82 2.851 2.262 0 1.486-1.026 2.263-2.851 2.263m18.929-.683V16.59c0-3.062-2.008-4.992-5.383-4.992-3.483.005-5.335 2.046-5.49 4.175h3.329c.115-.465.617-1.264 2.167-1.264 1.278 0 2.099.577 2.099 2.087H97.79c-2.921 0-4.654 1.486-4.654 3.97 0 2.595 1.897 4.371 4.632 4.371 2.008 0 3.116-.922 3.603-1.62.433.844 1.391 1.31 2.645 1.31h1.139V21.74c-.591 0-.82-.266-.82-.953m-3.285-.82c0 1.441-1.05 2.262-2.419 2.262-1.185 0-2.121-.421-2.121-1.664 0-1.243 1.028-1.421 1.917-1.421h2.623v.822ZM0 29.45h17.56V33H0v-3.55ZM11.973 9.6C11.47 8.147 10.894 7 8.917 7S6.325 8.142 5.8 9.6L.365 24.626h3.603l1.255-3.571h6.936l1.167 3.571h3.833L11.973 9.6Zm-5.7 8.438 2.462-7.13h.09l2.327 7.13h-4.88Z" fill="#EF3124"/></svg>