<svg width="198" height="30" fill="none" xmlns="http://www.w3.org/2000/svg"><path d="M0 22.92c1.12.027 1.973-.067 2.56-.28.613-.24 1.053-.627 1.32-1.16.293-.56.493-1.36.6-2.4L6.24.52h21.44v28h-6.24V6.24h-9.6l-1.2 13.64c-.267 3.067-1.093 5.28-2.48 6.64-1.387 1.333-3.587 2-6.6 2A22.02 22.02 0 0 1 0 28.48v-5.56Zm46.695 6.12c-2.853 0-5.453-.627-7.8-1.88-2.32-1.28-4.146-3.027-5.48-5.24-1.306-2.213-1.96-4.68-1.96-7.4 0-2.72.654-5.187 1.96-7.4 1.334-2.213 3.16-3.947 5.48-5.2C41.242.64 43.842 0 46.695 0c2.854 0 5.44.64 7.76 1.92 2.347 1.253 4.187 2.987 5.52 5.2 1.334 2.213 2 4.68 2 7.4 0 2.72-.666 5.187-2 7.4-1.333 2.213-3.173 3.96-5.52 5.24-2.32 1.253-4.906 1.88-7.76 1.88Zm0-5.72c1.707 0 3.227-.373 4.56-1.12a7.908 7.908 0 0 0 3.16-3.12c.747-1.333 1.12-2.853 1.12-4.56 0-1.707-.373-3.227-1.12-4.56a7.907 7.907 0 0 0-3.16-3.12c-1.333-.747-2.853-1.12-4.56-1.12-1.706 0-3.24.373-4.6 1.12a7.978 7.978 0 0 0-3.12 3.12c-.746 1.333-1.12 2.853-1.12 4.56 0 1.707.374 3.227 1.12 4.56a7.978 7.978 0 0 0 3.12 3.12c1.36.747 2.894 1.12 4.6 1.12ZM65.702.52h19.36v5.6h-13.12v22.4h-6.24v-28Zm34.473 28.52c-2.853 0-5.453-.627-7.8-1.88-2.32-1.28-4.147-3.027-5.48-5.24-1.307-2.213-1.96-4.68-1.96-7.4 0-2.72.653-5.187 1.96-7.4 1.333-2.213 3.16-3.947 5.48-5.2C94.722.64 97.322 0 100.175 0c2.853 0 5.44.64 7.76 1.92 2.347 1.253 4.187 2.987 5.52 5.2 1.333 2.213 2 4.68 2 7.4 0 2.72-.667 5.187-2 7.4s-3.173 3.96-5.52 5.24c-2.32 1.253-4.907 1.88-7.76 1.88Zm0-5.72c1.707 0 3.227-.373 4.56-1.12a7.91 7.91 0 0 0 3.16-3.12c.747-1.333 1.12-2.853 1.12-4.56 0-1.707-.373-3.227-1.12-4.56a7.91 7.91 0 0 0-3.16-3.12c-1.333-.747-2.853-1.12-4.56-1.12-1.707 0-3.24.373-4.6 1.12a7.978 7.978 0 0 0-3.12 3.12c-.747 1.333-1.12 2.853-1.12 4.56 0 1.707.373 3.227 1.12 4.56a7.978 7.978 0 0 0 3.12 3.12c1.36.747 2.893 1.12 4.6 1.12Zm24.126-17.2h-8.76V.52h23.76v5.6h-8.76v22.4h-6.24V6.12Zm36.971 20.64c0-3.653.053-6.48.16-8.48.133-2.027.347-3.76.64-5.2.32-1.44.827-3.133 1.52-5.08l-1.72-.68c-1.147 2.613-2.627 5.333-4.44 8.16-1.787 2.827-4.827 7.173-9.12 13.04h-6.16v-28h6.2v1.76c0 3.653-.067 6.48-.2 8.48-.107 2-.32 3.733-.64 5.2-.32 1.44-.813 3.12-1.48 5.04l1.76.72c1.12-2.64 2.573-5.36 4.36-8.16 1.813-2.827 4.867-7.173 9.16-13.04h6.16v28h-6.2v-1.76ZM172.349.52h25.08v28h-6.24V6.12h-12.6v22.4h-6.24v-28Z" fill="#003C97"/></svg>