<svg width="169" height="22" fill="none" xmlns="http://www.w3.org/2000/svg"><g clip-path="url(#a)"><path d="M33.278 4.234c2.345 0 4.245 1.036 5.046 1.806l-1.336 1.63c-.653-.592-2.108-1.392-3.71-1.392-2.94 0-4.78 2.014-4.78 4.767 0 2.754 1.752 4.768 4.81 4.768 1.78 0 3.324-.948 3.977-1.6l1.277 1.688c-.802.83-2.82 1.955-5.284 1.955-4.335 0-7.006-2.902-7.006-6.84 0-3.88 2.76-6.78 7.006-6.78Zm13.358 0c4.008 0 6.917 2.902 6.917 6.84 0 3.938-2.91 6.84-6.917 6.84-4.008 0-6.917-2.902-6.917-6.84 0-3.938 2.91-6.84 6.917-6.84Zm0 11.607c2.701 0 4.72-2.043 4.72-4.767 0-2.754-1.989-4.767-4.72-4.767-2.701 0-4.72 2.043-4.72 4.767s2.019 4.767 4.72 4.767Zm20.691-2.043c0 1.925-1.247 3.79-4.423 3.79h-6.976V4.53h6.56c2.672 0 4.186 1.629 4.186 3.494 0 1.037-.475 1.984-1.633 2.754 1.158.385 2.286 1.243 2.286 3.02Zm-9.262-7.225v3.494l4.156-.03c1.484 0 2.256-.828 2.256-1.806 0-.888-.653-1.658-1.96-1.658h-4.452Zm4.958 8.972c1.513 0 2.107-.829 2.107-1.747 0-.977-.683-1.806-2.048-1.806h-4.987v3.553h4.928Zm12.913-4.678 5.788 6.721h-2.85l-4.838-5.715h-2.494v5.715h-2.167V4.53h2.167v5.39h2.494l4.72-5.39h2.88l-5.7 6.337Z" fill="#213A8B"/><path d="M88.374 4.234c4.008 0 6.917 2.902 6.917 6.84 0 3.938-2.91 6.84-6.917 6.84-4.008 0-6.917-2.902-6.917-6.84 0-3.938 2.91-6.84 6.917-6.84Zm0 11.607c2.701 0 4.72-2.043 4.72-4.767 0-2.754-1.989-4.767-4.72-4.767-2.701 0-4.72 2.043-4.72 4.767s2.019 4.767 4.72 4.767ZM109.807 4.53h2.078v13.058h-2.167V7.876l-4.305 5.744h-1.306l-4.304-5.744v9.712h-2.167V4.53h2.078l5.046 6.692 5.047-6.692Zm11.934 5.33c2.879 0 4.452 1.688 4.452 3.85 0 2.16-1.573 3.878-4.304 3.878h-7.125V4.53h10.212v2.043h-8.044V9.86h4.809Zm.059 5.685c1.484 0 2.167-.829 2.167-1.806 0-.977-.683-1.806-2.167-1.806h-4.868v3.612h4.868Zm16.357 2.043-1.425-3.257h-6.204l-1.425 3.257h-2.346l5.7-13.058h2.375l5.7 13.058h-2.375Zm-6.769-5.211h4.513l-2.256-5.211-2.257 5.21Zm20.454-7.847h2.167v13.058h-2.167v-5.596h-7.57v5.596h-2.167V4.53h2.167v5.42h7.57V4.53Zm11.607 6.337 5.818 6.721h-2.879l-4.839-5.715h-2.494v5.715h-2.167V4.53h2.167v5.39h2.494l4.72-5.39h2.879l-5.699 6.337Z" fill="#213A8B"/><path d="M.356 11.074c0 5.981 4.869 10.837 10.895 10.837h.445v-4.116h-.445a6.725 6.725 0 0 1-6.739-6.721c0-3.701 3.028-6.721 6.739-6.721h.445V.207h-.445C5.225.207.356 5.063.356 11.074Z" fill="#DA5155"/><path d="M13.418.415V6.07H11.25a4.985 4.985 0 0 0-5.017 5.004c0 2.754 2.256 5.004 5.017 5.004h2.167v5.655c4.957-1.006 8.698-5.388 8.698-10.63 0-5.3-3.74-9.682-8.698-10.688Z" fill="#213A8B"/></g><defs><clipPath id="a"><path fill="#fff" d="M0 0h169v22H0z"/></clipPath></defs></svg>