<svg xmlns="http://www.w3.org/2000/svg" width="0" height="0" xmlns:xlink="http://www.w3.org/1999/xlink"><symbol viewBox="0 0 6 10" id="arrow-right" xmlns="http://www.w3.org/2000/svg"><path d="M0.599976 8.6001L4.59998 4.6001L0.599977 0.600097" stroke-width="1.2" stroke-linecap="round" stroke-linejoin="round"/></symbol><symbol viewBox="0 0 33 24" id="quotes" xmlns="http://www.w3.org/2000/svg"><path d="M31.2 6.96C30.8267 6.90667 30.2933 6.88 29.6 6.88C28.32 6.88 27.4133 7.12 26.88 7.6C26.3467 8.08 26.08 8.88 26.08 10V12H32.08V23.92H18.48V9.2C18.48 3.06667 21.9467 0 28.88 0C29.8933 0 30.6667 0.0266663 31.2 0.079999V6.96ZM12.72 6.96C12.3467 6.90667 11.8133 6.88 11.12 6.88C9.84 6.88 8.93333 7.12 8.4 7.6C7.86667 8.08 7.6 8.88 7.6 10V12H13.6V23.92H0V9.2C0 3.06667 3.46667 0 10.4 0C11.4133 0 12.1867 0.0266663 12.72 0.079999V6.96Z"/></symbol><symbol viewBox="0 0 24 22" id="telegram" xmlns="http://www.w3.org/2000/svg"><path d="M23.75 0.752782L19.9932 20.3653C19.9932 20.3653 19.4676 21.7251 18.0236 21.073L9.35572 14.1907L9.31553 14.1704C10.4864 13.0817 19.5655 4.62833 19.9623 4.24515C20.5766 3.6517 20.1952 3.29841 19.482 3.7467L6.07099 12.5662L0.897048 10.7635C0.897048 10.7635 0.0828217 10.4635 0.00449105 9.81138C-0.0748702 9.15817 0.923845 8.80487 0.923845 8.80487L22.0164 0.236184C22.0164 0.236184 23.75 -0.552588 23.75 0.752782Z"/></symbol><symbol viewBox="0 0 28 18" id="vk" xmlns="http://www.w3.org/2000/svg"><path d="M14.9781 17.5C5.58245 17.5 0.223298 10.9309 0 0H4.70643C4.86102 8.02302 8.33073 11.4214 11.079 12.1221V0H15.5106V6.91942C18.2245 6.62162 21.0759 3.46847 22.0378 0H26.4694C26.1069 1.79885 25.3844 3.50207 24.347 5.00313C23.3096 6.50419 21.9797 7.77079 20.4404 8.72372C22.1586 9.59444 23.6762 10.8269 24.8931 12.3397C26.11 13.8525 26.9985 15.6113 27.5 17.5H22.6218C22.1716 15.8595 21.2567 14.391 19.9917 13.2785C18.7267 12.1661 17.1679 11.4591 15.5106 11.2462V17.5H14.9781Z"/></symbol><symbol viewBox="0 0 21 21" id="whatsapp" xmlns="http://www.w3.org/2000/svg"><path d="M17.9268 3.0625C15.9512 1.09375 13.3171 0 10.5366 0C4.7561 0 0.0731696 4.66667 0.0731696 10.4271C0.0731696 12.25 0.585366 14.0729 1.46341 15.6042L0 21L5.56098 19.5417C7.09756 20.3437 8.78049 20.7812 10.5366 20.7812C16.3171 20.7812 21 16.1146 21 10.3542C20.9268 7.65625 19.9024 5.03125 17.9268 3.0625ZM15.5854 14.1458C15.3659 14.7292 14.3415 15.3125 13.8293 15.3854C13.3902 15.4583 12.8049 15.4583 12.2195 15.3125C11.8537 15.1667 11.3415 15.0208 10.7561 14.7292C8.12195 13.6354 6.43903 11.0104 6.29268 10.7917C6.14634 10.6458 5.19512 9.40625 5.19512 8.09375C5.19512 6.78125 5.85366 6.19792 6.07317 5.90625C6.29268 5.61458 6.58537 5.61458 6.80488 5.61458C6.95122 5.61458 7.17073 5.61458 7.31707 5.61458C7.46341 5.61458 7.68293 5.54167 7.90244 6.05208C8.12195 6.5625 8.63414 7.875 8.70731 7.94792C8.78049 8.09375 8.78049 8.23958 8.70731 8.38542C8.63414 8.53125 8.56097 8.67708 8.41463 8.82292C8.26829 8.96875 8.12195 9.1875 8.04878 9.26042C7.90244 9.40625 7.7561 9.55208 7.90244 9.77083C8.04878 10.0625 8.56097 10.8646 9.36585 11.5937C10.3902 12.4687 11.1951 12.7604 11.4878 12.9063C11.7805 13.0521 11.9268 12.9792 12.0732 12.8333C12.2195 12.6875 12.7317 12.1042 12.878 11.8125C13.0244 11.5208 13.2439 11.5938 13.4634 11.6667C13.6829 11.7396 15 12.3958 15.2195 12.5417C15.5122 12.6875 15.6585 12.7604 15.7317 12.8333C15.8049 13.0521 15.8049 13.5625 15.5854 14.1458Z"/></symbol></svg>