<svg width="116" height="42" fill="none" xmlns="http://www.w3.org/2000/svg"><mask id="a" style="mask-type:luminance" maskUnits="userSpaceOnUse" x="0" y="0" width="116" height="42"><path d="M115.755 0H0v42h115.755V0Z" fill="#fff"/></mask><g mask="url(#a)"><path d="M0 6.177h32.362v16.356c0 4.194-2.252 8.061-5.913 10.166l-10.268 6.004-10.258-6.004A11.705 11.705 0 0 1 .016 22.534V6.177H0Z" fill="#FFDD2D"/><path fill-rule="evenodd" clip-rule="evenodd" d="M8.713 14.785v5.083c.707-.78 1.98-1.31 3.425-1.31h1.587v5.91c0 1.575-.425 2.947-1.069 3.71h7.047c-.644-.763-1.033-2.136-1.033-3.71v-5.91h1.544c1.46 0 2.744.53 3.435 1.31v-5.083H8.713Z" fill="#333"/><path d="M56.207 19.412c-.842-.312-1.943-.405-3.141-.405h-6.673v-1.993H57.86v-3.426H41.697v14.824h10.947c1.523 0 2.656-.125 3.498-.436 1.782-.654 2.98-2.242 2.98-4.329 0-2.117-1.133-3.581-2.915-4.235Zm-2.332 5.138c-.259.094-.615.125-1.069.125h-6.413v-2.367h6.413c.519 0 .94.031 1.264.187.388.187.583.53.583.965 0 .436-.227.903-.778 1.09Zm17.87-10.962H65.17l-6.048 14.824h5.087l.837-2.149h6.823l.868 2.149h5.056l-6.048-14.824Zm-5.583 9.405 2.14-5.979h.341l2.14 5.979h-4.62Zm17.361-.093v5.512h-4.486V13.588h4.486v5.42h7.209v-5.42h4.486v14.824h-4.486V22.9h-7.209Zm18.77-.094v5.606h-4.586V13.588h4.586v5.575h1.265l5.535-5.575h5.755l-7.337 7.1 7.622 7.724h-6.104l-5.471-5.606h-1.265Z" fill="#333"/></g></svg>